<?xml version="1.0" encoding="UTF-8" standalone="no"?>
<!-- Created with Inkscape (http://www.inkscape.org/) -->

<svg
   width="210mm"
   height="297mm"
   viewBox="0 0 210 297"
   version="1.1"
   id="svg5"
   inkscape:version="1.2.1 (9c6d41e410, 2022-07-14)"
   sodipodi:docname="drawing.svg"
   xmlns:inkscape="http://www.inkscape.org/namespaces/inkscape"
   xmlns:sodipodi="http://sodipodi.sourceforge.net/DTD/sodipodi-0.dtd"
   xmlns="http://www.w3.org/2000/svg"
   xmlns:svg="http://www.w3.org/2000/svg">
  <sodipodi:namedview
     id="namedview7"
     pagecolor="#ffffff"
     bordercolor="#000000"
     borderopacity="0.25"
     inkscape:showpageshadow="2"
     inkscape:pageopacity="0.0"
     inkscape:pagecheckerboard="0"
     inkscape:deskcolor="#d1d1d1"
     inkscape:document-units="mm"
     showgrid="false"
     inkscape:zoom="0.49260384"
     inkscape:cx="400.9307"
     inkscape:cy="363.37516"
     inkscape:window-width="1920"
     inkscape:window-height="1011"
     inkscape:window-x="0"
     inkscape:window-y="0"
     inkscape:window-maximized="1"
     inkscape:current-layer="layer1" />
  <defs
     id="defs2">
    <rect
       x="367.78568"
       y="183.96713"
       width="36.749691"
       height="42.656891"
       id="rect5799" />
    <rect
       x="367.78568"
       y="183.96713"
       width="36.749691"
       height="42.656891"
       id="rect5799-0" />
    <rect
       x="367.78568"
       y="183.96713"
       width="36.749691"
       height="42.656891"
       id="rect5799-3" />
    <rect
       x="367.78568"
       y="183.96713"
       width="36.749691"
       height="42.656891"
       id="rect5799-3-0" />
    <rect
       x="367.78568"
       y="183.96713"
       width="36.749691"
       height="42.656891"
       id="rect5799-3-2" />
    <rect
       x="367.78568"
       y="183.96713"
       width="36.749691"
       height="42.656891"
       id="rect5799-3-23" />
    <rect
       x="367.78568"
       y="183.96713"
       width="36.749691"
       height="42.656891"
       id="rect5799-3-5" />
    <rect
       x="367.78568"
       y="183.96713"
       width="36.749691"
       height="42.656891"
       id="rect5799-3-0-22" />
    <rect
       x="367.78568"
       y="183.96713"
       width="36.749691"
       height="42.656891"
       id="rect5799-3-0-9" />
    <rect
       x="367.78568"
       y="183.96713"
       width="36.749691"
       height="42.656891"
       id="rect5799-3-0-3" />
  </defs>
  <rect
     style="fill:#ffbfbf;fill-opacity:1;stroke-width:0.255064"
     id="rect3792"
     width="27.250774"
     height="56.680908"
     x="113.04031"
     y="76.228966" />
  <g
     inkscape:label="Layer 1"
     inkscape:groupmode="layer"
     id="layer1">
    <rect
       style="fill:#5e5e5e;fill-opacity:1;stroke-width:0.200538"
       id="rect238"
       width="157.0899"
       height="1.35"
       x="30.980024"
       y="132.86905" />
    <path
       style="fill:#5e5e5e;fill-opacity:1;stroke-width:0.264583"
       d="m 193.8288,134.02141 c -0.13549,-0.0586 -0.34789,-0.3113 -0.40649,-0.1758 -0.0586,0.1355 0.52993,0.25679 0.40649,0.1758 -0.4117,-0.27014 -0.60702,-0.30942 -0.97396,-0.4562 -1.19329,-0.47731 0.71077,0.35539 -0.56969,-0.28484 -0.15426,-0.0771 -0.53864,-0.0986 -0.65982,-0.1899 -0.0745,-0.0561 -0.18805,-0.19329 -0.35087,-0.24739 -0.40331,-0.13399 -0.84067,-0.22233 -1.23434,-0.37979 -0.0416,-0.0166 -0.0525,-0.0806 -0.0949,-0.095 -0.0586,-0.0198 -0.1274,0.0212 -0.18545,0 -0.0213,-0.008 0.0212,-0.0601 0,-0.0679 -0.0581,-0.0212 -0.12486,0.0122 -0.18545,0 -0.29123,-0.0588 -0.57358,-0.2146 -0.85454,-0.28484 -0.0918,-0.0229 -0.21471,0.0647 -0.28373,0 -0.0214,-0.02 0.0265,-0.0755 0,-0.0879 -0.0566,-0.0265 -0.12699,0.0152 -0.18768,0 -0.3424,-0.0856 -0.70644,-0.29456 -1.0385,-0.37757 -0.0614,-0.0154 -0.12985,0.02 -0.1899,0 -0.0425,-0.0142 -0.0549,-0.0749 -0.0949,-0.095 -0.22708,-0.11354 -0.43736,-0.13297 -0.66465,-0.1899 -0.45633,-0.1143 0.004,-0.0453 -0.28299,-0.18916 -0.29371,-0.14743 -0.65726,-0.14013 -0.94504,-0.28373 -0.44761,-0.22336 -0.99805,-0.44999 -1.46911,-0.65463 -0.036,-0.0156 -7.9e-4,0.3331 0.095,0.62051 0.32785,0.98355 -0.0975,-0.39264 0.0949,0.56969 0.038,0.18995 0.15182,0.37976 0.1899,0.56969 0.0186,0.0927 -0.0228,0.19195 0,0.28374 0.0107,0.0429 0.074,0.0543 0.0938,0.0938 0.0613,0.12255 -0.031,0.30092 0.0935,0.55078 0.13881,0.27873 -0.0864,1.02993 0,1.37453 0.0172,0.0687 0.0778,0.12124 0.0949,0.1899 0.0318,0.12737 0.054,1.54577 0,1.65048 -0.10453,0.20287 -0.0938,0.52447 -0.0938,0.57303"
       id="path358" />
    <rect
       style="fill:#5e5e5e;fill-opacity:1;stroke-width:0.200538"
       id="rect238-7"
       width="157.0899"
       height="1.35"
       x="-210.67357"
       y="111.67784"
       transform="rotate(-90)" />
    <path
       style="fill:#5e5e5e;fill-opacity:1;stroke-width:0.264583"
       d="m 112.76053,46.514467 c -0.0586,0.13549 -0.3113,0.34789 -0.1758,0.40649 0.1355,0.0586 0.25679,-0.52993 0.1758,-0.40649 -0.27014,0.4117 -0.30942,0.60702 -0.4562,0.97396 -0.47731,1.19329 0.35539,-0.71077 -0.28484,0.56969 -0.0771,0.15426 -0.0986,0.53864 -0.1899,0.65982 -0.0561,0.0745 -0.19329,0.18805 -0.24739,0.35087 -0.13399,0.40331 -0.22233,0.84067 -0.37979,1.23434 -0.0166,0.0416 -0.0806,0.0525 -0.095,0.0949 -0.0198,0.0586 0.0212,0.1274 0,0.18545 -0.008,0.0213 -0.0601,-0.0212 -0.0679,0 -0.0212,0.0581 0.0122,0.12486 0,0.18545 -0.0588,0.29123 -0.2146,0.57358 -0.28484,0.85454 -0.0229,0.0918 0.0647,0.21471 0,0.28373 -0.02,0.0214 -0.0755,-0.0265 -0.0879,0 -0.0265,0.0566 0.0152,0.12699 0,0.18768 -0.0856,0.3424 -0.29456,0.70644 -0.37757,1.0385 -0.0154,0.0614 0.02,0.12985 0,0.1899 -0.0142,0.0425 -0.0749,0.0549 -0.095,0.0949 -0.11354,0.22708 -0.13297,0.43736 -0.1899,0.66465 -0.1143,0.45633 -0.0453,-0.004 -0.18916,0.28299 -0.14743,0.29371 -0.14013,0.65726 -0.28373,0.94504 -0.22336,0.44761 -0.44999,0.99805 -0.65463,1.46911 -0.0156,0.036 0.3331,7.9e-4 0.62051,-0.095 0.98355,-0.32785 -0.39264,0.0975 0.56969,-0.0949 0.18995,-0.038 0.37976,-0.15182 0.56969,-0.1899 0.0927,-0.0186 0.19195,0.0228 0.28374,0 0.0429,-0.0107 0.0543,-0.074 0.0938,-0.0938 0.12255,-0.0613 0.30092,0.031 0.55078,-0.0935 0.27873,-0.13881 1.02993,0.0864 1.37453,0 0.0687,-0.0172 0.12124,-0.0778 0.1899,-0.0949 0.12737,-0.0318 1.54577,-0.054 1.65048,0 0.20287,0.10453 0.52447,0.0938 0.57303,0.0938"
       id="path358-5" />
    <rect
       style="fill:#5e5e5e;fill-opacity:1;stroke-width:0.264583"
       id="rect2838"
       width="1.4162128"
       height="12.59695"
       x="167.87051"
       y="127.3962" />
    <rect
       style="fill:#5e5e5e;fill-opacity:1;stroke-width:0.264583"
       id="rect2838-9"
       width="1.4162128"
       height="12.59695"
       x="140.34499"
       y="127.72732" />
    <rect
       style="fill:#5e5e5e;fill-opacity:1;stroke-width:0.264583"
       id="rect2838-3"
       width="1.4162128"
       height="12.59695"
       x="55.762062"
       y="126.99651" />
    <rect
       style="fill:#5e5e5e;fill-opacity:1;stroke-width:0.264583"
       id="rect2838-5"
       width="1.4162128"
       height="12.59695"
       x="74.808945"
       y="-118.39115"
       transform="rotate(90)" />
    <rect
       style="fill:#5e5e5e;fill-opacity:1;stroke-width:0.264583"
       id="rect2838-5-2"
       width="1.4162128"
       height="12.59695"
       x="161.25418"
       y="-118.63772"
       transform="rotate(90)" />
    <rect
       style="fill:#5e5e5e;fill-opacity:1;stroke-width:0.264583"
       id="rect2838-6"
       width="1.4162128"
       height="12.59695"
       x="186.92435"
       y="-118.50448"
       transform="rotate(90)" />
    <circle
       id="path5613"
       style="fill:#ffbfbf;stroke:#000000;stroke-width:0.264583"
       cx="26.851608"
       cy="83.835747"
       r="0.012647094" />
    <circle
       id="path5615"
       style="fill:#ffbfbf;stroke:#000000;stroke-width:0.264583"
       cx="50.374073"
       cy="80.872307"
       r="0.012647094" />
    <path
       style="fill:#ffbfbf;fill-opacity:1;stroke-width:0.264583"
       d="m 111.649,76.253336 -54.455323,56.609584 54.476143,0.008 z"
       id="path5671" />
    <path
       style="fill:#ffbfbf;fill-opacity:1;stroke-width:0.264583"
       d="m 140.2263,134.2769 -0.22738,2.0126 -0.21899,2.37556 -0.99606,3.99687 -1.17153,2.9132 -2.27433,3.90114 -2.03803,2.62865 -2.3879,2.40756 -3.3197,2.3357 -3.0842,1.80279 -3.58328,1.33203 -3.37216,0.88067 -2.9014,0.3829 -1.53895,0.0205 -0.0839,-26.94685 z"
       id="path5742" />
    <rect
       style="fill:#5e5e5e;fill-opacity:1;stroke-width:0.264583"
       id="rect2838-3-7"
       width="1.4162128"
       height="12.59695"
       x="83.864449"
       y="126.97552" />
    <text
       xml:space="preserve"
       transform="matrix(1.1947495,0,0,1.1947495,-322.35746,-173.60103)"
       id="text5797"
       style="white-space:pre;shape-inside:url(#rect5799);display:inline;fill:#5e5e5e;fill-opacity:1"><tspan
         x="367.78516"
         y="194.58398"
         id="tspan7292">Y</tspan></text>
    <text
       xml:space="preserve"
       transform="matrix(1.1947495,0,0,1.1947495,-253.95343,-106.65119)"
       id="text5797-9"
       style="white-space:pre;shape-inside:url(#rect5799-0);display:inline;fill:#5e5e5e;fill-opacity:1"><tspan
         x="367.78516"
         y="194.58398"
         id="tspan7294">X</tspan></text>
    <text
       xml:space="preserve"
       transform="matrix(1.1947495,0,0,1.1947495,-275.80245,-106.52531)"
       id="text5797-6"
       style="white-space:pre;shape-inside:url(#rect5799-3);display:inline;fill:#5e5e5e;fill-opacity:1"><tspan
         x="367.78516"
         y="194.58398"
         id="tspan7296">R</tspan></text>
    <text
       xml:space="preserve"
       transform="matrix(1.1947495,0,0,1.1947495,-318.55511,-152.13907)"
       id="text5797-6-7"
       style="white-space:pre;shape-inside:url(#rect5799-3-23);display:inline;fill:#5e5e5e;fill-opacity:1"><tspan
         x="367.78516"
         y="194.58398"
         id="tspan7298">R</tspan></text>
    <text
       xml:space="preserve"
       transform="matrix(1.1947495,0,0,1.1947495,-319.51054,-40.767782)"
       id="text5797-6-9"
       style="white-space:pre;shape-inside:url(#rect5799-3-5);display:inline;fill:#5e5e5e;fill-opacity:1"><tspan
         x="367.78516"
         y="194.58398"
         id="tspan7300">R</tspan></text>
    <rect
       style="white-space:pre;shape-inside:url(#rect5799);fill:#5e5e5e;fill-opacity:1;stroke-width:0.264583"
       id="rect2838-5-1"
       width="1.4162128"
       height="12.59695"
       x="106.63139"
       y="-118.62618"
       transform="rotate(90,1.1391324e-6,4.2149875e-6)"
       inkscape:label="rect2838-5-1" />
    <text
       xml:space="preserve"
       transform="matrix(0.65222695,0,0,0.65222695,-104.95244,-1.6945602)"
       id="text5797-6-6"
       style="white-space:pre;shape-inside:url(#rect5799-3-0);display:inline;fill:#5e5e5e;fill-opacity:1"><tspan
         x="367.78516"
         y="194.58398"
         id="tspan7302">R/2</tspan></text>
    <text
       xml:space="preserve"
       transform="matrix(0.65222695,0,0,0.65222695,-118.64692,-16.859016)"
       id="text5797-6-6-8"
       style="white-space:pre;shape-inside:url(#rect5799-3-0-22);display:inline;fill:#5e5e5e;fill-opacity:1"><tspan
         x="367.78516"
         y="194.58398"
         id="tspan7304">R/2</tspan></text>
    <text
       xml:space="preserve"
       transform="matrix(0.65222695,0,0,0.65222695,-119.47549,37.052644)"
       id="text5797-6-6-7"
       style="white-space:pre;shape-inside:url(#rect5799-3-0-9);display:inline;fill:#5e5e5e;fill-opacity:1"><tspan
         x="367.78516"
         y="194.58398"
         id="tspan7306">R/2</tspan></text>
    <text
       xml:space="preserve"
       transform="matrix(0.65222695,0,0,0.65222695,-160.45483,-1.8771261)"
       id="text5797-6-6-6"
       style="white-space:pre;shape-inside:url(#rect5799-3-0-3);display:inline;fill:#5e5e5e;fill-opacity:1"><tspan
         x="367.78516"
         y="194.58398"
         id="tspan7308">R/2</tspan></text>
    <text
       xml:space="preserve"
       transform="matrix(1.1947495,0,0,1.1947495,-388.05026,-105.79932)"
       id="text5797-6-1"
       style="white-space:pre;shape-inside:url(#rect5799-3-2);display:inline;fill:#5e5e5e;fill-opacity:1"><tspan
         x="367.78516"
         y="194.58398"
         id="tspan7310">R</tspan></text>
  </g>
</svg>
