<?xml version="1.0" encoding="UTF-8" standalone="no"?>
<!-- Created with Inkscape (http://www.inkscape.org/) -->

<svg
   width="300mm"
   height="300mm"
   viewBox="0 0 300 300"
   version="1.1"
   id="svg5"
   inkscape:version="1.2.1 (9c6d41e410, 2022-07-14)"
   sodipodi:docname="drawing.svg"
   inkscape:export-filename="drawing.svg"
   inkscape:export-xdpi="96"
   inkscape:export-ydpi="96"
   xmlns:inkscape="http://www.inkscape.org/namespaces/inkscape"
   xmlns:sodipodi="http://sodipodi.sourceforge.net/DTD/sodipodi-0.dtd"
   xmlns="http://www.w3.org/2000/svg"
   xmlns:svg="http://www.w3.org/2000/svg">
  <sodipodi:namedview
     id="namedview7"
     pagecolor="#ffffff"
     bordercolor="#000000"
     borderopacity="0.25"
     inkscape:showpageshadow="2"
     inkscape:pageopacity="0.0"
     inkscape:pagecheckerboard="0"
     inkscape:deskcolor="#d1d1d1"
     inkscape:document-units="mm"
     showgrid="false"
     inkscape:zoom="0.49260384"
     inkscape:cx="400.9307"
     inkscape:cy="363.37516"
     inkscape:window-width="1920"
     inkscape:window-height="1011"
     inkscape:window-x="0"
     inkscape:window-y="0"
     inkscape:window-maximized="1"
     inkscape:current-layer="layer1" />
  <defs
     id="defs2">
    <rect
       x="367.78568"
       y="183.96713"
       width="36.749691"
       height="42.656891"
       id="rect5799" />
    <rect
       x="367.78568"
       y="183.96713"
       width="36.749691"
       height="42.656891"
       id="rect5799-0" />
    <rect
       x="367.78568"
       y="183.96713"
       width="36.749691"
       height="42.656891"
       id="rect5799-3" />
    <rect
       x="367.78568"
       y="183.96713"
       width="36.749691"
       height="42.656891"
       id="rect5799-3-0" />
    <rect
       x="367.78568"
       y="183.96713"
       width="36.749691"
       height="42.656891"
       id="rect5799-3-2" />
    <rect
       x="367.78568"
       y="183.96713"
       width="36.749691"
       height="42.656891"
       id="rect5799-3-23" />
    <rect
       x="367.78568"
       y="183.96713"
       width="36.749691"
       height="42.656891"
       id="rect5799-3-5" />
    <rect
       x="367.78568"
       y="183.96713"
       width="36.749691"
       height="42.656891"
       id="rect5799-3-0-22" />
    <rect
       x="367.78568"
       y="183.96713"
       width="36.749691"
       height="42.656891"
       id="rect5799-3-0-9" />
    <rect
       x="367.78568"
       y="183.96713"
       width="36.749691"
       height="42.656891"
       id="rect5799-3-0-3" />
  </defs>
  <rect
     style="fill:#ffbfbf;fill-opacity:1;stroke-width:0.459503"
     id="rect3792"
     width="49.092785"
     height="102.11172"
     x="152.38039"
     y="56.009914" />
  <g
     inkscape:label="Layer 1"
     inkscape:groupmode="layer"
     id="layer1">
    <rect
       style="fill:#5e5e5e;fill-opacity:1;stroke-width:0.361273"
       id="rect238"
       width="283.00043"
       height="2.4320505"
       x="4.5472383"
       y="158.04808" />
    <path
       style="fill:#5e5e5e;fill-opacity:1;stroke-width:0.476651"
       d="m 297.92238,160.12409 c -0.24409,-0.10557 -0.62673,-0.56081 -0.7323,-0.3167 -0.10557,0.2441 0.95468,0.46261 0.7323,0.3167 -0.74169,-0.48666 -1.09356,-0.55742 -1.75461,-0.82185 -2.14974,-0.85988 1.28046,0.64024 -1.02631,-0.51314 -0.2779,-0.1389 -0.97037,-0.17763 -1.18868,-0.34211 -0.13421,-0.10107 -0.33877,-0.34822 -0.6321,-0.44568 -0.72657,-0.24139 -1.51448,-0.40053 -2.22368,-0.6842 -0.075,-0.0299 -0.0946,-0.1452 -0.17097,-0.17114 -0.10557,-0.0357 -0.22951,0.0382 -0.33409,0 -0.0384,-0.0144 0.0382,-0.10827 0,-0.12233 -0.10467,-0.0382 -0.22494,0.022 -0.33409,0 -0.52466,-0.10593 -1.03331,-0.3866 -1.53947,-0.51314 -0.16538,-0.0413 -0.3868,0.11656 -0.51114,0 -0.0386,-0.036 0.0477,-0.13602 0,-0.15835 -0.10197,-0.0477 -0.22878,0.0274 -0.33811,0 -0.61684,-0.15421 -1.27267,-0.53066 -1.87088,-0.6802 -0.11061,-0.0277 -0.23393,0.036 -0.34211,0 -0.0766,-0.0256 -0.0989,-0.13494 -0.17096,-0.17115 -0.40909,-0.20454 -0.78792,-0.23955 -1.19738,-0.34211 -0.82209,-0.20591 0.007,-0.0816 -0.50981,-0.34077 -0.52913,-0.2656 -1.18407,-0.25245 -1.70251,-0.51115 -0.80638,-0.40238 -1.79801,-0.81066 -2.64663,-1.17933 -0.0649,-0.0281 -0.001,0.60009 0.17114,1.11787 0.59063,1.77188 -0.17564,-0.70735 0.17097,1.0263 0.0684,0.3422 0.2735,0.68415 0.34211,1.02631 0.0335,0.167 -0.0411,0.3458 0,0.51116 0.0193,0.0773 0.13331,0.0978 0.16898,0.16899 0.11043,0.22077 -0.0558,0.54211 0.16844,0.99224 0.25007,0.50213 -0.15565,1.85543 0,2.47624 0.031,0.12376 0.14016,0.21841 0.17096,0.34211 0.0573,0.22946 0.0973,2.78473 0,2.97337 -0.18831,0.36547 -0.16898,0.94484 -0.16898,1.03232"
       id="path358" />
    <rect
       style="fill:#5e5e5e;fill-opacity:1;stroke-width:0.361273"
       id="rect238-7"
       width="283.00043"
       height="2.4320505"
       x="-298.21442"
       y="149.92587"
       transform="rotate(-90)" />
    <path
       style="fill:#5e5e5e;fill-opacity:1;stroke-width:0.476651"
       d="m 151.87636,2.4786865 c -0.10557,0.2440878 -0.56081,0.6267304 -0.31671,0.7322994 0.24411,0.105569 0.46261,-0.9546789 0.31671,-0.7322994 -0.48666,0.7416853 -0.55743,1.0935579 -0.82185,1.7546073 -0.85989,2.1497344 0.64024,-1.2804656 -0.51315,1.0263074 -0.1389,0.277902 -0.17763,0.97037 -0.34211,1.188678 -0.10106,0.134213 -0.34821,0.338776 -0.44567,0.632099 -0.24139,0.726571 -0.40054,1.514483 -0.6842,2.223687 -0.0299,0.07494 -0.14521,0.09458 -0.17115,0.170964 -0.0357,0.105569 0.0382,0.229513 0,0.334092 -0.0144,0.03837 -0.10827,-0.03819 -0.12232,0 -0.0382,0.104668 0.022,0.2249368 0,0.3340908 -0.10593,0.524657 -0.38661,1.033315 -0.51315,1.53947 -0.0412,0.16538 0.11656,0.386804 0,0.511145 -0.036,0.03855 -0.13601,-0.04774 -0.15835,0 -0.0477,0.101966 0.0274,0.228775 0,0.338109 -0.15421,0.61684 -0.53065,1.272665 -0.6802,1.870878 -0.0277,0.110613 0.036,0.233927 0,0.342108 -0.0256,0.07657 -0.13493,0.0989 -0.17114,0.170964 -0.20455,0.409089 -0.23955,0.787912 -0.34211,1.19738 -0.20591,0.822087 -0.0816,-0.0072 -0.34078,0.509811 -0.26559,0.529125 -0.25244,1.184067 -0.51114,1.702508 -0.40239,0.806378 -0.81067,1.798006 -1.17933,2.646629 -0.0281,0.06485 0.60009,0.0014 1.11786,-0.171144 1.77188,-0.590628 -0.70735,0.175648 1.02631,-0.170964 0.3422,-0.06846 0.68414,-0.273507 1.02631,-0.342109 0.167,-0.03351 0.3458,0.04107 0.51116,0 0.0773,-0.01928 0.0978,-0.133312 0.16898,-0.168982 0.22078,-0.110433 0.54211,0.05585 0.99224,-0.168442 0.50214,-0.250069 1.85544,0.155651 2.47624,0 0.12377,-0.03099 0.21842,-0.140158 0.34211,-0.170964 0.22946,-0.05729 2.78474,-0.09728 2.97337,0 0.36548,0.188312 0.94484,0.168982 1.03233,0.168982"
       id="path358-5" />
    <rect
       style="fill:#5e5e5e;fill-opacity:1;stroke-width:0.476651"
       id="rect2838"
       width="2.5513341"
       height="22.693642"
       x="251.158"
       y="148.18864" />
    <rect
       style="fill:#5e5e5e;fill-opacity:1;stroke-width:0.476651"
       id="rect2838-9"
       width="2.5513341"
       height="22.693642"
       x="201.57028"
       y="148.78516" />
    <rect
       style="fill:#5e5e5e;fill-opacity:1;stroke-width:0.476651"
       id="rect2838-3"
       width="2.5513341"
       height="22.693642"
       x="49.192543"
       y="147.4686" />
    <rect
       style="fill:#5e5e5e;fill-opacity:1;stroke-width:0.476651"
       id="rect2838-5"
       width="2.5513341"
       height="22.693642"
       x="53.451721"
       y="-162.02003"
       transform="rotate(90)" />
    <rect
       style="fill:#5e5e5e;fill-opacity:1;stroke-width:0.476651"
       id="rect2838-5-2"
       width="2.5513341"
       height="22.693642"
       x="209.18443"
       y="-162.46422"
       transform="rotate(90)" />
    <rect
       style="fill:#5e5e5e;fill-opacity:1;stroke-width:0.476651"
       id="rect2838-6"
       width="2.5513341"
       height="22.693642"
       x="255.42973"
       y="-162.22418"
       transform="rotate(90)" />
    <circle
       id="path5615"
       style="fill:#ffbfbf;stroke:#000000;stroke-width:0.476651"
       cx="39.485981"
       cy="64.374985"
       r="0.022783978" />
    <path
       style="fill:#ffbfbf;fill-opacity:1;stroke-width:0.476651"
       d="m 149.87392,56.053819 -98.102293,101.983231 98.139793,0.0144 z"
       id="path5671" />
    <path
       style="fill:#ffbfbf;fill-opacity:1;stroke-width:0.476651"
       d="m 201.35646,160.58436 -0.40963,3.62574 -0.39451,4.27962 -1.79442,7.20044 -2.11054,5.24818 -4.09724,7.02798 -3.67155,4.73556 -4.30185,4.33726 -5.9805,4.20781 -5.55625,3.24776 -6.45534,2.39968 -6.07501,1.58654 -5.22693,0.6898 -2.77245,0.0369 -0.15115,-48.54526 z"
       id="path5742" />
    <rect
       style="fill:#5e5e5e;fill-opacity:1;stroke-width:0.476651"
       id="rect2838-3-7"
       width="2.5513341"
       height="22.693642"
       x="99.819519"
       y="147.43077" />
    <text
       xml:space="preserve"
       transform="matrix(2.1523637,0,0,2.1523637,-631.9969,-394.06353)"
       id="text5797"
       style="white-space:pre;shape-inside:url(#rect5799);display:inline;fill:#5e5e5e;fill-opacity:1"><tspan
         x="367.78516"
         y="194.58398"
         id="tspan7660">Y</tspan></text>
    <text
       xml:space="preserve"
       transform="matrix(2.1523637,0,0,2.1523637,-515.59294,-271.44845)"
       id="text5797-9"
       style="white-space:pre;shape-inside:url(#rect5799-0);display:inline;fill:#5e5e5e;fill-opacity:1"><tspan
         x="367.78516"
         y="194.58398"
         id="tspan7662">X</tspan></text>
    <text
       xml:space="preserve"
       transform="matrix(2.1523637,0,0,2.1523637,-548.12717,-273.22535)"
       id="text5797-6"
       style="white-space:pre;shape-inside:url(#rect5799-3);display:inline;fill:#5e5e5e;fill-opacity:1"><tspan
         x="367.78516"
         y="194.58398"
         id="tspan7664">R</tspan></text>
    <text
       xml:space="preserve"
       transform="matrix(2.1523637,0,0,2.1523637,-625.14689,-355.3994)"
       id="text5797-6-7"
       style="white-space:pre;shape-inside:url(#rect5799-3-23);display:inline;fill:#5e5e5e;fill-opacity:1"><tspan
         x="367.78516"
         y="194.58398"
         id="tspan7666">R</tspan></text>
    <text
       xml:space="preserve"
       transform="matrix(2.1523637,0,0,2.1523637,-626.86811,-154.76193)"
       id="text5797-6-9"
       style="white-space:pre;shape-inside:url(#rect5799-3-5);display:inline;fill:#5e5e5e;fill-opacity:1"><tspan
         x="367.78516"
         y="194.58398"
         id="tspan7668">R</tspan></text>
    <rect
       style="white-space:pre;shape-inside:url(#rect5799);fill:#5e5e5e;fill-opacity:1;stroke-width:0.476651"
       id="rect2838-5-1"
       width="2.5513341"
       height="22.693642"
       x="110.78047"
       y="-162.44345"
       transform="rotate(90)"
       inkscape:label="rect2838-5-1" />
    <text
       xml:space="preserve"
       transform="matrix(1.1749991,0,0,1.1749991,-240.33766,-84.370784)"
       id="text5797-6-6"
       style="white-space:pre;shape-inside:url(#rect5799-3-0);display:inline;fill:#5e5e5e;fill-opacity:1"><tspan
         x="367.78516"
         y="194.58398"
         id="tspan7670">R/2</tspan></text>
    <text
       xml:space="preserve"
       transform="matrix(1.1749991,0,0,1.1749991,-265.00852,-111.68984)"
       id="text5797-6-6-8"
       style="white-space:pre;shape-inside:url(#rect5799-3-0-22);display:inline;fill:#5e5e5e;fill-opacity:1"><tspan
         x="367.78516"
         y="194.58398"
         id="tspan7672">R/2</tspan></text>
    <text
       xml:space="preserve"
       transform="matrix(1.1749991,0,0,1.1749991,-266.5012,-14.566966)"
       id="text5797-6-6-7"
       style="white-space:pre;shape-inside:url(#rect5799-3-0-9);display:inline;fill:#5e5e5e;fill-opacity:1"><tspan
         x="367.78516"
         y="194.58398"
         id="tspan7674">R/2</tspan></text>
    <text
       xml:space="preserve"
       transform="matrix(1.1749991,0,0,1.1749991,-340.32626,-84.69968)"
       id="text5797-6-6-6"
       style="white-space:pre;shape-inside:url(#rect5799-3-0-3);display:inline;fill:#5e5e5e;fill-opacity:1"><tspan
         x="367.78516"
         y="194.58398"
         id="tspan7676">R/2</tspan></text>
    <text
       xml:space="preserve"
       transform="matrix(2.1523637,0,0,2.1523637,-750.34371,-271.91747)"
       id="text5797-6-1"
       style="white-space:pre;shape-inside:url(#rect5799-3-2);display:inline;fill:#5e5e5e;fill-opacity:1"><tspan
         x="367.78516"
         y="194.58398"
         id="tspan7678">R</tspan></text>
  </g>
</svg>
